<svg id="activity" xmlns="http://www.w3.org/2000/svg" width="48" height="48" viewBox="0 0 48 48">
  <defs>
    <style>
      .vi-primary {
        fill: #ffb500;
      }

      .vi-primary, .vi-accent {
        fill-rule: evenodd;
      }

      .vi-accent {
        fill: #070b2c;
      }
    </style>
  </defs>
  <path class="vi-primary" d="M20,33a2,2,0,0,1-1.788-1.1l-3.6-7.183-2.047,2.551A2,2,0,0,1,11,28.013H7a1.994,1.994,0,1,1,0-3.988h3.039l3.4-4.237a2,2,0,0,1,3.351.354l2.7,5.386,2.588-9.03a2,2,0,0,1,3.75-.262l3.473,7.79H32a1.994,1.994,0,1,1,0,3.988H28a2,2,0,0,1-1.827-1.184L24.41,22.874l-2.487,8.678a2,2,0,0,1-1.737,1.437C20.123,33,20.061,33,20,33Z"/>
  <path class="vi-accent" d="M37,32a6,6,0,1,1,6-6A6,6,0,0,1,37,32Zm0-8.717A2.72,2.72,0,1,0,39.728,26,2.724,2.724,0,0,0,37,23.283Z"/>
</svg>
