<svg id="bulb" xmlns="http://www.w3.org/2000/svg" width="48" height="48" viewBox="0 0 48 48">
  <defs>
    <style>
      .vi-primary {
        fill: #ffb400;
      }

      .vi-accent {
        fill: #070c2b;
      }

      .vi-prop {
        fill: #fff;
      }
    </style>
  </defs>
  <rect class="vi-accent" x="19" y="37" width="10" height="5"/>
  <path class="vi-primary" d="M31,30c-1.917,1.186-2,3.742-2,6v1H19V36c0-2.258-.118-4.874-2-6a13.355,13.355,0,0,1-6-11.308A12.849,12.849,0,0,1,24,6,12.849,12.849,0,0,1,37,18.692,13.355,13.355,0,0,1,31,30Z"/>
  <path class="vi-prop" d="M26,27.633V37H22V27.633A5.982,5.982,0,0,1,18,22h3.6a2.4,2.4,0,0,0,4.8,0H30A5.982,5.982,0,0,1,26,27.633Z"/>
</svg>
