<svg id="camera" xmlns="http://www.w3.org/2000/svg" width="48" height="48" viewBox="0 0 48 48">
  <defs>
    <style>
      .vi-primary {
        fill: #ffb400;
      }

      .vi-primary, .vi-accent {
        stroke: #fff;
        stroke-linecap: round;
        stroke-width: 0;
      }

      .vi-accent {
        fill: #070c2b;
      }
    </style>
  </defs>
  <rect class="vi-primary" x="6" y="13" width="36" height="22"/>
  <path class="vi-accent" fill-rule="evenodd" d="M24,17a7,7,0,1,1-7,7A7,7,0,0,1,24,17Zm0,4a3,3,0,1,1-3,3A3,3,0,0,1,24,21Zm11.5-4A1.5,1.5,0,1,1,34,18.5,1.5,1.5,0,0,1,35.5,17ZM10,13l4-4h6l4,4H10Z"/>
</svg>
