<svg id="cart" xmlns="http://www.w3.org/2000/svg" width="48" height="48" viewBox="0 0 48 48">
  <defs>
    <style>
      .vi-primary {
        fill: #FF6E6E;
      }

      .vi-primary, .vi-accent {
        fill-rule: evenodd;
      }

      .vi-accent {
        fill: #0C0058;
      }
    </style>
  </defs>
  <path class="vi-primary" d="M14.58,35.043a3.479,3.479,0,1,1-3.527,3.479A3.5,3.5,0,0,1,14.58,35.043Zm11.771,0a3.479,3.479,0,1,1-3.542,3.479A3.511,3.511,0,0,1,26.351,35.043ZM44,12H14L9,6H4L18,26H30l-2,3H13L9,33H30Z"/>
  <path class="vi-accent" d="M16,16H36l-2,2H18Zm3,4H32l-2,2H21Z"/>
</svg>
