<svg id="cloud-tools" xmlns="http://www.w3.org/2000/svg" width="48" height="48" viewBox="0 0 48 48">
  <defs>
    <style>
      .vi-primary {
        fill: #ffb400;
      }

      .vi-primary, .vi-accent, .vi-prop {
        fill-rule: evenodd;
      }

      .vi-accent {
        fill: #070c2b;
      }

      .vi-prop {
        fill: #fff;
      }
    </style>
  </defs>
  <path class="vi-primary" d="M37.22,37H13.492A9.67,9.67,0,0,1,4,27.162C4,21.729,7.758,18,13,18a17.222,17.222,0,0,1,3,0c1.607-3.882,5.022-7,9.356-7C31.16,11,36,14.985,36,21c0,0.411.043,1.6,0,2a3.292,3.292,0,0,1,1,0,7.046,7.046,0,0,1,7,6.973A6.907,6.907,0,0,1,37.22,37Z"/>
  <path class="vi-accent" d="M8.809,35.713l12.414-12.49L24.9,26.9,14.853,37H13.492A9.183,9.183,0,0,1,8.809,35.713Z"/>
  <path class="vi-prop" d="M32.427,19.171a7.041,7.041,0,0,1-1.443,7.754,6.869,6.869,0,0,1-6.426,1.862,7.573,7.573,0,0,1-5.387-6.655,6.981,6.981,0,0,1,2.008-5.1,6.885,6.885,0,0,1,7.683-1.456l-5.009,5.055,3.566,3.6Z"/>
</svg>
