<svg id="controller" xmlns="http://www.w3.org/2000/svg" width="48" height="48" viewBox="0 0 48 48">
  <defs>
    <style>
      .vi-primary {
        fill: #ffb400;
      }

      .vi-primary, .vi-accent {
        fill-rule: evenodd;
      }

      .vi-accent {
        fill: #070c2b;
      }
    </style>
  </defs>
  <path class="vi-primary" d="M35.55,37a10.459,10.459,0,0,1-10.307-8.842H22.757A10.449,10.449,0,1,1,12.45,16h23.1A10.5,10.5,0,0,1,35.55,37Z"/>
  <path class="vi-accent" d="M17,14H31v2H17V14Zm0,14H14v3H11V28H8V25h3V22h3v3h3v3Zm19-9a2,2,0,1,1-2,2A2,2,0,0,1,36,19Zm0,10a2,2,0,1,1-2,2A2,2,0,0,1,36,29Zm5-5a2,2,0,1,1-2,2A2,2,0,0,1,41,24ZM31,24a2,2,0,1,1-2,2A2,2,0,0,1,31,24Z"/>
</svg>
