<svg id="cookie" xmlns="http://www.w3.org/2000/svg" width="48" height="48" viewBox="0 0 48 48">
  <defs>
    <style>
      .vi-primary {
        fill: #FF6E6E;
      }

      .vi-primary, .vi-accent {
        fill-rule: evenodd;
      }

      .vi-accent {
        fill: #0C0058;
      }
    </style>
  </defs>
  <path class="vi-primary" d="M41,28.6a17.976,17.976,0,0,1-29.265,7.655,18.08,18.08,0,0,1,7.36-29.259A5.373,5.373,0,0,0,20.779,9.1a5.812,5.812,0,0,0,1.06,1.075c-0.424,1.105-1.643,4.895.9,6.37,0.534,0.958,1.616,1.66,3.613,1.7,0.02,1.381.325,3.629,1.969,4.624,0.925,1.482,2.811,2.365,6.6.751A5.55,5.55,0,0,0,37,27.228,3.282,3.282,0,0,0,41,28.6Z"/>
  <path class="vi-accent" d="M13.5,25A1.5,1.5,0,1,1,12,26.5,1.5,1.5,0,0,1,13.5,25Zm9,9A1.5,1.5,0,1,1,21,35.5,1.5,1.5,0,0,1,22.5,34Zm0-10A1.5,1.5,0,1,1,21,25.5,1.5,1.5,0,0,1,22.5,24Zm-6-10A1.5,1.5,0,1,1,15,15.5,1.5,1.5,0,0,1,16.5,14Zm17,15A1.5,1.5,0,1,1,32,30.5,1.5,1.5,0,0,1,33.5,29Z"/>
</svg>
