<svg id="flame" xmlns="http://www.w3.org/2000/svg" width="48" height="48" viewBox="0 0 48 48">
  <defs>
    <style>
      .vi-primary {
        fill: #ffb400;
      }

      .vi-primary, .vi-accent {
        stroke: #fff;
        stroke-linecap: round;
        stroke-width: 0;
        fill-rule: evenodd;
      }

      .vi-accent {
        fill: #070c2b;
      }
    </style>
  </defs>
  <path class="vi-primary" d="M35.555,32.1A11.979,11.979,0,0,1,12,28.857a7.933,7.933,0,0,1,.485-2.924c1.158-7.338,8.3-7.87,4.315-18.933,0,0,6.65,1.727,8,12.143,0,0,4.919-.163,1.6-7.286A21.311,21.311,0,0,1,36,27,24.911,24.911,0,0,1,35.555,32.1Z"/>
  <path class="vi-accent" d="M31,33.5a7.5,7.5,0,0,1-14.975.484L16,34s-0.075-3.272,0-4c0.684-6.611,2.6-9.563,5-14,0.067-2.639-1.115,7.273,5,10A8.188,8.188,0,0,1,31,33.5Z"/>
</svg>
