<svg id="graph-poly" xmlns="http://www.w3.org/2000/svg" width="48" height="48" viewBox="0 0 48 48">
  <defs>
    <style>
      .vi-primary {
        fill: #ffb400;
      }

      .vi-primary, .vi-accent {
        fill-rule: evenodd;
      }

      .vi-accent {
        fill: #070c2b;
      }
    </style>
  </defs>
  <path class="vi-primary" d="M36.214,28.786a7,7,0,1,1-12.428,0l-5.02-5.02a6.925,6.925,0,0,1-5.612-.921L7,29,4,26l6.477-6.477a7,7,0,1,1,11.947,1.9l4.363,4.363a6.965,6.965,0,0,1,6.428,0L42,17l3,3Z"/>
  <path class="vi-accent" d="M17,14a3,3,0,1,1-3,3A3,3,0,0,1,17,14ZM30,29a3,3,0,1,1-3,3A3,3,0,0,1,30,29Z"/>
</svg>
