<svg id="industry" xmlns="http://www.w3.org/2000/svg" width="48" height="48" viewBox="0 0 48 48">
  <defs>
    <style>
      .vi-primary {
        fill: #ffb400;
      }

      .vi-primary, .vi-accent {
        fill-rule: evenodd;
      }

      .vi-accent {
        fill: #070c2b;
      }
    </style>
  </defs>
  <path class="vi-primary" d="M41,24V41H7V19h4V13l8-8V19h5v5h7.326l2.388-11.8h3.643L39.745,24H41Z"/>
  <path class="vi-accent" d="M34,39V34h5v5H34Zm0-12h5v5H34V27ZM26.188,11c-1-1.677,1.633-5.308,6.124-3.529a11.823,11.823,0,0,0,3.674,1.4V11a13.26,13.26,0,0,1-4.9-1.176A4.185,4.185,0,0,0,26.188,11ZM17,36h5v5H17V36Zm0-7h5v5H17V29Zm0-7h5v5H17V22Zm-6-9,8-8V8l-8,8V13Zm3,14H9V22h5v5Zm0,7H9V29h5v5Zm0,7H9V36h5v5Zm17-9H26V27h5v5Zm0,7H26V34h5v5Z"/>
</svg>
