<svg xmlns="http://www.w3.org/2000/svg" viewBox="0 0 48 48" width="48" height="48">
	<defs>
		<style>
			.vi-primary {
				fill: #FF6E6E;
			}

			.vi-primary, vi.accent {
				fill-rule: evenodd;
			}

			.vi-accent {
				fill: #0C0058;
			}
		</style>
	</defs>

	<path class="vi-primary" d=" M 15.508 16.244 C 15.342 16.391 14.356 20.63 14.508 20.832 C 14.66 21.034 16.634 20.561 17.508 20.832 C 18.381 21.103 18.551 22.292 18.508 22.667 C 18.464 23.042 15.572 43.213 15.508 43.772 C 15.443 44.331 15.938 46.007 16.508 46.525 C 17.078 47.042 17.878 47.411 18.508 47.442 C 19.137 47.474 19.841 47.555 20.508 47.442 C 21.175 47.33 22.975 46.767 23.508 46.525 C 24.041 46.282 26.643 44.487 27.508 43.772 C 28.373 43.057 31.083 40.474 31.508 40.101 C 31.933 39.729 33.493 38.488 33.508 38.266 C 33.522 38.044 32.658 36.646 32.508 36.431 C 32.358 36.216 31.799 35.571 31.508 35.513 C 31.216 35.456 30.762 35.407 30.508 35.513 Q 30.253 35.62 26.508 38.266 Q 25.798 38.503 25.508 38.266 C 25.218 38.029 27.225 31.453 27.508 30.008 C 27.791 28.563 29.389 22.249 29.508 21.749 C 29.627 21.249 30.572 17.552 30.508 17.161 C 30.444 16.771 29.87 16.271 29.508 16.244 C 29.145 16.216 15.673 16.097 15.508 16.244 Z "/>
	<path class="vi-accent" d=" M 21.176 5.67 C 21.43 4.53 22.363 2.778 23.844 1.733 C 24.534 1.246 25.164 0.777 27.041 0.572 C 28.918 0.368 29.848 0.651 30.28 0.749 C 31.087 0.931 33.329 1.735 33.498 4.686 C 33.666 7.636 31.741 9.436 31.138 10.002 C 30.336 10.754 29.254 11.28 28.134 11.575 C 27.015 11.871 24.826 12.326 22.771 10.85 C 20.717 9.374 20.922 6.81 21.176 5.67 Z "/>
</svg>