<svg xmlns="http://www.w3.org/2000/svg" viewBox="0 0 48 48" width="48" height="48">
	<defs>
		<style>
			.vi-primary {
				fill: #FF6E6E;
			}

			.vi-primary, vi.accent {
				fill-rule: evenodd;
			}

			.vi-accent {
				fill: #0C0058;
			}
		</style>
	</defs>


	<circle class="vi-primary" vector-effect="non-scaling-stroke" cx="24" cy="24" r="22"/>
	<path class="vi-accent" d=" M 17.811 18.347 C 17.69 18.454 16.971 21.544 17.082 21.691 C 17.193 21.838 18.631 21.494 19.268 21.691 C 19.905 21.889 20.029 22.755 19.997 23.029 C 19.965 23.302 17.857 38.003 17.811 38.41 C 17.763 38.818 18.124 40.039 18.54 40.417 C 18.955 40.793 19.538 41.062 19.997 41.085 C 20.456 41.108 20.969 41.167 21.455 41.085 C 21.941 41.003 23.253 40.593 23.641 40.417 C 24.03 40.239 25.926 38.931 26.557 38.41 C 27.187 37.889 29.162 36.007 29.472 35.735 C 29.782 35.464 30.918 34.559 30.929 34.397 C 30.94 34.235 30.31 33.217 30.201 33.06 C 30.091 32.903 29.684 32.433 29.472 32.391 C 29.259 32.349 28.928 32.314 28.743 32.391 Q 28.557 32.469 25.828 34.397 Q 25.31 34.57 25.099 34.397 C 24.888 34.225 26.35 29.432 26.557 28.379 C 26.763 27.326 27.927 22.724 28.014 22.359 C 28.101 21.995 28.79 19.301 28.743 19.016 C 28.696 18.731 28.278 18.367 28.014 18.347 C 27.75 18.327 17.931 18.24 17.811 18.347 Z  M 21.942 10.641 C 22.127 9.81 22.807 8.533 23.886 7.772 C 24.389 7.417 24.848 7.075 26.216 6.925 C 27.584 6.777 28.262 6.983 28.577 7.054 C 29.165 7.187 30.799 7.773 30.922 9.924 C 31.045 12.074 29.642 13.386 29.202 13.798 C 28.618 14.346 27.829 14.73 27.013 14.945 C 26.197 15.16 24.602 15.492 23.104 14.416 C 21.607 13.34 21.757 11.472 21.942 10.641 Z "/>
</svg>