<svg width="48px" height="48px" viewBox="0 0 48 48" version="1.1" xmlns="http://www.w3.org/2000/svg">
    <defs>
    <style>
      .vi-primary {
        fill: #FF6E6E;
      }

      .vi-primary, .vi-accent {
        fill-rule: evenodd;
      }

      .vi-accent {
        fill: #0C0058;
      }
    </style>
    </defs>
        <g transform="translate(10.000000, 7.000000)">
            <path class="vi-primary" d="M22.957,30.769 C19.657,30.769 16.982,28.141 16.982,24.898 C16.982,21.656 19.657,19.028 22.957,19.028 C23.393,19.028 23.818,19.076 24.228,19.164 L24.228,7.408 L28.931,6.047 L28.931,24.898 C28.931,28.141 26.256,30.769 22.957,30.769 Z M6.94,35 C3.64,35 0.965,32.372 0.965,29.13 C0.965,25.887 3.64,23.259 6.94,23.259 C7.376,23.259 7.801,23.308 8.211,23.395 L8.211,12.043 L12.914,10.682 L12.914,29.208 L12.91,29.208 C12.867,32.414 10.213,35 6.94,35 Z"></path>
            <polygon class="vi-accent" points="28.931 6.047 28.931 5.912 28.931 0.999 8.211 6.995 8.211 10.221 8.211 12.043"></polygon>
        </g>
</svg>