<svg id="newspaper" xmlns="http://www.w3.org/2000/svg" width="48" height="48" viewBox="0 0 48 48">
  <defs>
    <style>
      .vi-primary {
        fill: #ffb400;
      }

      .vi-primary, .vi-accent {
        fill-rule: evenodd;
      }

      .vi-accent {
        fill: #070c2b;
      }
    </style>
  </defs>
  <path class="vi-primary" d="M37,39h3v3H7V6H37V39Z"/>
  <path class="vi-accent" d="M43,39a2.7,2.7,0,0,1-3,3c-2.787,0-3-3-3-3l0.011-17H43V39ZM21,32.981H32V35H21V32.981Zm0-9.961H32V25H21V23.019ZM12,12H32v3H12V12Zm6,13H12V19h6v6Zm0,10H12V29h6v6ZM28,21l-7-.019V19h7v2Zm0,10-7-.01V29h7v2Z"/>
</svg>
