<svg id="processor" xmlns="http://www.w3.org/2000/svg" width="48" height="48" viewBox="0 0 48 48">
  <defs>
    <style>
      .vi-primary {
        fill: #ffb500;
      }

      .vi-accent {
        fill: #070b2c;
        fill-rule: evenodd;
      }
    </style>
  </defs>
  <rect class="vi-primary" x="12" y="12" width="24" height="24"/>
  <path class="vi-accent" d="M16,16H32V32H16V16ZM8,16h4v3H8V16Zm0,6h4v3H8V22Zm0,6h4v3H8V28ZM36,16h4v3H36V16Zm0,6h4v3H36V22Zm0,6h4v3H36V28ZM32,8v4H29V8h3ZM26,8v4H23V8h3ZM20,8v4H17V8h3ZM31,36v4H28V36h3Zm-6,0v4H22V36h3Zm-6,0v4H16V36h3Z"/>
</svg>
