<svg id="rocket" xmlns="http://www.w3.org/2000/svg" width="48" height="48" viewBox="0 0 48 48">
  <defs>
    <style>
      .vi-primary {
        fill: #FF6E6E;
      }

      .vi-primary, .vi-accent {
        fill-rule: evenodd;
      }

      .vi-accent {
        fill: #0C0058;
      }
    </style>
  </defs>
  <path class="vi-primary" d="M29.624,43.785L25.381,32.472l7.778-7.778,2.075,8.735ZM4.168,18.329l10.357-5.611,8.735,2.075-7.778,7.778ZM5.624,34.991c1.92-4.929,5.24-2.274,5.24-2.274l2.222,2.217,2.2,2.193s2.627,3.28-2.295,5.213a12.725,12.725,0,0,1-4.578.376c-0.815-.076-3.537,1.6-4.347,1.222-0.39-.814,1.288-3.537,1.207-4.355A12.681,12.681,0,0,1,5.624,34.991Z"/>
  <path class="vi-accent" d="M10.7,24.537C29.323,6.122,43.983,3.986,43.983,3.986S41.823,18.484,23.2,36.9c0,0-4.841,5.327-11.38-1.14A8.244,8.244,0,0,1,10.7,24.537Z"/>
  <path class="vi-primary" d="M27.646,20.336a4.454,4.454,0,1,1-6.346-.058A4.512,4.512,0,0,1,27.646,20.336Z"/>
</svg>
