<svg id="search-disabled" xmlns="http://www.w3.org/2000/svg" width="48" height="48" viewBox="0 0 48 48">
  <defs>
    <style>
      .vi-primary {
        fill: #ffb400;
      }

      .vi-primary, .vi-accent {
        stroke: #fff;
        stroke-linecap: round;
        stroke-width: 0;
      }

      .vi-accent {
        fill: #070c2b;
      }
    </style>
  </defs>
  <path class="vi-accent" d="M25.283,28.611L35.889,39.218l2.828-2.828L28.111,25.783Zm-2.454-4.368L20,21.414l-2.828,2.828-1.414-1.414L18.586,20l-2.828-2.828,1.414-1.414L20,18.586l2.828-2.828,1.414,1.414L21.414,20l2.828,2.828Z"/>
  <path class="vi-primary" d="M20,32A12,12,0,1,1,32,20,12,12,0,0,1,20,32Zm0-20a8,8,0,1,0,8,8A8,8,0,0,0,20,12Z"/>
</svg>
