<svg id="share" xmlns="http://www.w3.org/2000/svg" width="48" height="48" viewBox="0 0 48 48">
  <defs>
    <style>
      .vi-primary {
        fill: #ffb400;
      }
      .vi-accent {
        fill: #070c2b;
      }
    </style>
  </defs>
  <path class="vi-accent" d="M29.954,15.211L16.818,22.76l-2.066-2.57,13.137-7.549ZM29.86,32.772L16.632,24.72l-2.081,2.808L27.78,35.58Z"/>
  <path class="vi-primary" d="M15,18a6,6,0,1,1-6,6A6,6,0,0,1,15,18ZM33,6a6,6,0,1,1-6,6A6,6,0,0,1,33,6Zm0,24a6,6,0,1,1-6,6A6,6,0,0,1,33,30Z"/>
</svg>
