<svg id="shop" xmlns="http://www.w3.org/2000/svg" width="48" height="48" viewBox="0 0 48 48">
  <defs>
    <style>
      .vi-primary {
        fill: #ffb400;
      }

      .vi-primary, .vi-accent {
        fill-rule: evenodd;
      }

      .vi-accent {
        fill: #070c2b;
      }
    </style>
  </defs>
  <path class="vi-primary" d="M41,11V41H7V11H5V7H43v4H41Z"/>
  <path class="vi-accent" d="M38.5,18c-4.3,0-4.5-5-4.5-5a5,5,0,0,1-10,0,5,5,0,0,1-10,0s-0.2,5-4.5,5A4.5,4.5,0,0,1,5,13.5V11H43v2.5A4.5,4.5,0,0,1,38.5,18ZM22.01,35.01h-9V25.99h9v9.02ZM34.993,41h-8V25.99h8V41Z"/>
</svg>
