<svg width="48px" height="48px" viewBox="0 0 48 48"  xmlns="http://www.w3.org/2000/svg" >
    <defs>
    <style>
      .vi-primary {
        fill: #FF6E6E;
      }

      .vi-primary, .vi-accent {
        fill-rule: evenodd;
      }

      .vi-accent {
        fill: #0C0058;
      }
    </style>
    </defs>
        <g transform="translate(9.000000, 8.000000)" id="Shape">
            <polygon class="vi-primary" points="18.009 32.01 6 24 6 8 18.009 0.014"></polygon>
            <path class="vi-accent" d="M20.174,29.025 L20.174,26.901 C24.813,25.156 28.127,20.71 28.127,15.498 C28.127,10.286 24.813,5.839 20.174,4.095 L20.174,1.97 C25.944,3.797 30.137,9.169 30.137,15.498 C30.137,21.827 25.944,27.198 20.174,29.025 Z M0.994,8.001 L6.006,8.001 L6.006,23.992 L0.994,23.992 L0.994,8.001 Z M24.805,15.498 C24.805,18.846 22.932,21.765 20.174,23.285 L20.174,20.889 C21.769,19.623 22.795,17.679 22.795,15.498 C22.795,13.317 21.769,11.372 20.174,10.106 L20.174,7.711 C22.932,9.23 24.805,12.149 24.805,15.498 Z" ></path>
        </g>
</svg>