<svg width="48px" height="48px" viewBox="0 0 48 48" xmlns="http://www.w3.org/2000/svg" >
   
    <defs>
    <style>
      .vi-primary {
        fill: #FF6E6E;
      }

      .vi-primary, .vi-accent {
        fill-rule: evenodd;
      }

      .vi-accent {
        fill: #0C0058;
      }
    </style>
    </defs>
        <g transform="translate(7.000000, 5.000000)" id="Shape">
            <polygon class="vi-primary" points="18.009 36.01 6 28 6 12 18.009 4.014"></polygon>
            <path class="vi-accent" d="M20.174,38 L20.174,35.94 C27.526,34.028 32.974,27.391 32.974,19.498 C32.974,11.604 27.526,4.968 20.174,3.056 L20.174,0.996 C28.646,2.953 34.984,10.497 34.984,19.498 C34.984,28.499 28.646,36.043 20.174,38 Z M0.994,12.001 L6.006,12.001 L6.006,27.992 L0.994,27.992 L0.994,12.001 Z M30.137,19.498 C30.137,25.827 25.944,31.198 20.174,33.025 L20.174,30.901 C24.813,29.156 28.127,24.71 28.127,19.498 C28.127,14.286 24.813,9.839 20.174,8.095 L20.174,5.97 C25.944,7.797 30.137,13.169 30.137,19.498 Z M24.805,19.498 C24.805,22.846 22.932,25.765 20.174,27.285 L20.174,24.889 C21.769,23.623 22.795,21.679 22.795,19.498 C22.795,17.317 21.769,15.372 20.174,14.106 L20.174,11.711 C22.932,13.23 24.805,16.149 24.805,19.498 Z"></path>
        </g>
</svg>