<svg id="vivid-js-logo" xmlns="http://www.w3.org/2000/svg" width="190" height="49" viewBox="0 0 190 49">
  <defs>
    <style>
      .cls-1 {
        fill: #ff6e6e;
        stroke: #fff;
        stroke-linecap: round;
        stroke-width: 0;
      }

      .cls-1, .cls-2 {
        fill-rule: evenodd;
      }

      .cls-2 {
        fill: #0c0058;
      }
    </style>
  </defs>
  <path id="Symbol" class="cls-1" d="M42.4,36.9L36.81,29.226,57.35,0H68ZM20.082,6H15L39.862,40.552,34,49,0,0H26.367L34,11,41.633,0H52.2L34.253,25.541Z"/>
  <path id="vivid.js" class="cls-2" d="M80.531,33.953h1.52A1.439,1.439,0,0,0,83.457,33l7.03-17.632,0.076-.38a0.773,0.773,0,0,0-.228-0.57,0.729,0.729,0,0,0-.532-0.228H88.055a0.939,0.939,0,0,0-.589.19,0.9,0.9,0,0,0-.323.418L81.291,29.963,75.439,14.8a0.975,0.975,0,0,0-.912-0.608H72.779a0.729,0.729,0,0,0-.532.228,0.773,0.773,0,0,0-.228.57,1.326,1.326,0,0,0,.038.38L79.125,33a1.439,1.439,0,0,0,1.406.95h0ZM95.2,10.469h2.242a0.914,0.914,0,0,0,.646-0.247A0.819,0.819,0,0,0,98.353,9.6V7.619a0.908,0.908,0,0,0-.912-0.912H95.2a0.819,0.819,0,0,0-.627.266,0.914,0.914,0,0,0-.247.646V9.6a0.845,0.845,0,0,0,.874.874h0Zm0.3,23.484h1.672a0.845,0.845,0,0,0,.874-0.874V15.067a0.845,0.845,0,0,0-.874-0.874H95.5a0.845,0.845,0,0,0-.874.874V33.079a0.845,0.845,0,0,0,.874.874h0Zm15.123,0h1.52a1.439,1.439,0,0,0,1.406-.95l7.03-17.632,0.076-.38a0.773,0.773,0,0,0-.228-0.57,0.729,0.729,0,0,0-.532-0.228H118.15a0.94,0.94,0,0,0-.589.19,0.9,0.9,0,0,0-.323.418l-5.852,15.162L105.534,14.8a0.975,0.975,0,0,0-.912-0.608h-1.748a0.729,0.729,0,0,0-.532.228,0.773,0.773,0,0,0-.228.57,1.345,1.345,0,0,0,.038.38L109.22,33a1.439,1.439,0,0,0,1.406.95h0Zm14.668-23.484h2.242a0.915,0.915,0,0,0,.646-0.247,0.819,0.819,0,0,0,.266-0.627V7.619a0.908,0.908,0,0,0-.912-0.912h-2.242a0.818,0.818,0,0,0-.627.266,0.914,0.914,0,0,0-.247.646V9.6a0.845,0.845,0,0,0,.874.874h0Zm0.3,23.484h1.672a0.845,0.845,0,0,0,.874-0.874V15.067a0.845,0.845,0,0,0-.874-0.874H125.6a0.845,0.845,0,0,0-.874.874V33.079a0.845,0.845,0,0,0,.874.874h0Zm15.466,0.38a7.357,7.357,0,0,0,6.27-2.888v1.634a0.887,0.887,0,0,0,.228.627,0.785,0.785,0,0,0,.608.247H149.8a0.845,0.845,0,0,0,.874-0.874V7.847a0.845,0.845,0,0,0-.874-0.874h-1.71a0.845,0.845,0,0,0-.874.874v8.778a7.381,7.381,0,0,0-6.156-2.812,7.077,7.077,0,0,0-5.966,2.6,11.047,11.047,0,0,0-2.166,6.517l-0.038,1.14,0.038,1.14a11.1,11.1,0,0,0,2.147,6.536,7.089,7.089,0,0,0,5.985,2.584h0Zm0.722-2.964q-5.4,0-5.4-7.3l0.038-1.1a7.98,7.98,0,0,1,1.368-4.484,4.616,4.616,0,0,1,3.99-1.71,4.846,4.846,0,0,1,3.971,1.691,6.488,6.488,0,0,1,1.463,4.009c0.024,0.279.038,0.773,0.038,1.482,0,0.684-.014,1.166-0.038,1.444a7.386,7.386,0,0,1-1.444,4.2,4.68,4.68,0,0,1-3.99,1.767h0Zm15.237,2.584h2.622a0.845,0.845,0,0,0,.874-0.874V30.457a0.915,0.915,0,0,0-.247-0.646,0.821,0.821,0,0,0-.627-0.266h-2.622a0.821,0.821,0,0,0-.627.266,0.915,0.915,0,0,0-.247.646v2.622a0.845,0.845,0,0,0,.874.874h0Zm9.387-23.484h2.356A0.845,0.845,0,0,0,169.64,9.6V7.619a0.919,0.919,0,0,0-.247-0.646,0.821,0.821,0,0,0-.627-0.266H166.41a0.818,0.818,0,0,0-.627.266,0.914,0.914,0,0,0-.247.646V9.6a0.845,0.845,0,0,0,.874.874h0Zm-4.18,30.7h0.722q6.384,0,6.384-6.688V15.067a0.845,0.845,0,0,0-.874-0.874h-1.71a0.886,0.886,0,0,0-.627.228,0.835,0.835,0,0,0-.247.646v19.38a5.241,5.241,0,0,1-.627,2.831,2.758,2.758,0,0,1-2.489.969H162.23a0.785,0.785,0,0,0-.836.836V40.3a0.889,0.889,0,0,0,.228.627,0.789,0.789,0,0,0,.608.247h0Zm19.608-6.84a11.488,11.488,0,0,0,4.389-.76A6.116,6.116,0,0,0,189,31.483a5.054,5.054,0,0,0,.931-2.964,4.729,4.729,0,0,0-1.5-3.61,10.815,10.815,0,0,0-5.111-2.166,22.369,22.369,0,0,1-3.5-.969,3.745,3.745,0,0,1-1.6-1.026,2.164,2.164,0,0,1-.418-1.349,2.505,2.505,0,0,1,.988-2.071,4.519,4.519,0,0,1,2.85-.779,6.559,6.559,0,0,1,2.09.285,3.617,3.617,0,0,1,1.273.684q0.436,0.4,1.083,1.121a0.8,0.8,0,0,0,.76.418H188.3a0.839,0.839,0,0,0,.589-0.228,0.746,0.746,0,0,0,.247-0.57,3.137,3.137,0,0,0-.855-1.786,7.075,7.075,0,0,0-2.546-1.862,9.514,9.514,0,0,0-4.085-.8,8.792,8.792,0,0,0-3.933.817,6.018,6.018,0,0,0-2.489,2.128,4.981,4.981,0,0,0-.836,2.717,4.782,4.782,0,0,0,1.368,3.534,9.463,9.463,0,0,0,4.674,2.09,29.732,29.732,0,0,1,3.667.988,4.6,4.6,0,0,1,1.767,1.026,2.142,2.142,0,0,1,.532,1.52,2.437,2.437,0,0,1-1.235,2.2,6.218,6.218,0,0,1-3.287.76,5.937,5.937,0,0,1-2.907-.608,6.9,6.9,0,0,1-1.957-1.672,1.682,1.682,0,0,0-.361-0.342,0.732,0.732,0,0,0-.361-0.076h-1.6a0.907,0.907,0,0,0-.57.209,0.705,0.705,0,0,0-.266.589,3.253,3.253,0,0,0,.874,1.824,7.369,7.369,0,0,0,2.679,1.957,10.3,10.3,0,0,0,4.427.855h0Z"/>
</svg>
